<svg id="Group_9" data-name="Group 9" xmlns="http://www.w3.org/2000/svg" width="250" height="94" viewBox="0 0 250 94">
  <g id="Group_8" data-name="Group 8" transform="translate(2 16)">
    <path id="Path_2" data-name="Path 2" d="M-.492-1.3A4.022,4.022,0,0,0-.352-.175,2.112,2.112,0,0,0,.043.6a1.533,1.533,0,0,0,.608.448,2.035,2.035,0,0,0,.781.144,2.07,2.07,0,0,0,.785-.144A1.575,1.575,0,0,0,2.831.6a2.129,2.129,0,0,0,.4-.778A3.932,3.932,0,0,0,3.375-1.3a3.939,3.939,0,0,0-.144-1.129,2.135,2.135,0,0,0-.4-.778,1.573,1.573,0,0,0-.614-.447A2.1,2.1,0,0,0,1.431-3.8a2.062,2.062,0,0,0-.781.145,1.531,1.531,0,0,0-.608.447,2.118,2.118,0,0,0-.395.778A4.029,4.029,0,0,0-.492-1.3M-1.8-1.3a4.23,4.23,0,0,1,.233-1.449A3.134,3.134,0,0,1-.909-3.844,2.8,2.8,0,0,1,.108-4.535a3.478,3.478,0,0,1,1.323-.24,3.52,3.52,0,0,1,1.323.24,2.844,2.844,0,0,1,1.029.691,3.145,3.145,0,0,1,.664,1.092A4.16,4.16,0,0,1,4.683-1.3,4.192,4.192,0,0,1,4.447.153a3.151,3.151,0,0,1-.664,1.092,2.837,2.837,0,0,1-1.029.688,3.608,3.608,0,0,1-1.323.236A3.564,3.564,0,0,1,.108,1.933,2.8,2.8,0,0,1-.909,1.245,3.141,3.141,0,0,1-1.568.153,4.262,4.262,0,0,1-1.8-1.3" transform="translate(7.859 56.932)"/>
    <path id="Path_3" data-name="Path 3" d="M0-.05H1.157l.106.935A2.48,2.48,0,0,1,2.118.057a2.042,2.042,0,0,1,.976-.24c.087,0,.183,0,.284.005s.193.012.282.021L3.538.978A2.739,2.739,0,0,0,3.194.934C3.077.929,2.947.925,2.806.925a1.354,1.354,0,0,0-.816.268,3.217,3.217,0,0,0-.68.688V6.629H0Z" transform="translate(14.419 52.34)"/>
    <path id="Path_4" data-name="Path 4" d="M0-.05H1.155L1.228.5A4.216,4.216,0,0,1,2.29,0,4.089,4.089,0,0,1,3.527-.183a3.672,3.672,0,0,1,1.128.156,1.453,1.453,0,0,1,.76.565A4.22,4.22,0,0,1,6.47.006,3.931,3.931,0,0,1,7.726-.183a3.365,3.365,0,0,1,.907.113,1.669,1.669,0,0,1,.7.385,1.733,1.733,0,0,1,.449.715,3.373,3.373,0,0,1,.157,1.112V6.629H8.629V2.141a1.513,1.513,0,0,0-.29-1.036A1.179,1.179,0,0,0,7.424.79,2.553,2.553,0,0,0,6.5.955a3.267,3.267,0,0,0-.8.437c.009.063.016.128.02.2s.007.14.007.217V6.629H4.419V1.807a.955.955,0,0,0-.284-.788A1.459,1.459,0,0,0,3.226.79,2.571,2.571,0,0,0,2.186,1a3.759,3.759,0,0,0-.878.542V6.629H0Z" transform="translate(19.509 52.34)"/>
    <path id="Path_5" data-name="Path 5" d="M-.922-2.237a2.51,2.51,0,0,0,.653-.08,3.117,3.117,0,0,0,.537-.19,2.928,2.928,0,0,0,.4-.224c.11-.075.188-.133.241-.173V-4.548h-1.3a2.067,2.067,0,0,0-.84.16,1.571,1.571,0,0,0-.515.368A1.254,1.254,0,0,0-2-3.583a1.321,1.321,0,0,0-.069.371.958.958,0,0,0,.087.417.846.846,0,0,0,.239.308A1.072,1.072,0,0,0-1.38-2.3a1.543,1.543,0,0,0,.458.064M.907-5.375v-.161a2.986,2.986,0,0,0-.084-.778,1.089,1.089,0,0,0-.26-.494.958.958,0,0,0-.454-.258A2.652,2.652,0,0,0-.562-7.14a4.441,4.441,0,0,0-.537.034,5.075,5.075,0,0,0-.536.094c-.171.039-.334.086-.487.133a3.229,3.229,0,0,0-.4.154l-.287-.909a3.168,3.168,0,0,1,.5-.23,5.22,5.22,0,0,1,.593-.177,5.674,5.674,0,0,1,.635-.113,4.985,4.985,0,0,1,.632-.039,4.676,4.676,0,0,1,1.1.118,1.955,1.955,0,0,1,.837.421,1.9,1.9,0,0,1,.536.816,3.888,3.888,0,0,1,.185,1.3v4.155H1.21L1.028-2.1a3.6,3.6,0,0,1-.355.257,3.53,3.53,0,0,1-.51.273,3.655,3.655,0,0,1-.651.22,3.125,3.125,0,0,1-.782.091,2.443,2.443,0,0,1-.917-.16,1.868,1.868,0,0,1-.661-.435,1.779,1.779,0,0,1-.4-.632,2.173,2.173,0,0,1-.132-.762,1.634,1.634,0,0,1,.213-.812,2.149,2.149,0,0,1,.591-.674,2.97,2.97,0,0,1,.9-.464A3.5,3.5,0,0,1-.546-5.375Z" transform="translate(34.676 60.35)"/>
    <path id="Path_6" data-name="Path 6" d="M-1.455-2.508a1.9,1.9,0,0,1,.233.909,1.576,1.576,0,0,1-.148.675,1.528,1.528,0,0,1-.436.56A2.183,2.183,0,0,1-2.53.02,3.254,3.254,0,0,1-3.546.164L-3.78-.571A1.994,1.994,0,0,0-2.72-.925a.869.869,0,0,0,.342-.7,1.741,1.741,0,0,0-.293-.881ZM-5.328-5.727A4.175,4.175,0,0,1-5.1-7.153a3.059,3.059,0,0,1,.653-1.089,2.931,2.931,0,0,1,1.04-.7A3.664,3.664,0,0,1-2.03-9.186a5.7,5.7,0,0,1,1.1.093,2.692,2.692,0,0,1,.777.268l-.368.909C-.6-7.953-.682-7.989-.77-8.025a2.365,2.365,0,0,0-.291-.093,3.235,3.235,0,0,0-.364-.067,3.634,3.634,0,0,0-.464-.028,2.525,2.525,0,0,0-.872.145,1.706,1.706,0,0,0-.672.447,2.026,2.026,0,0,0-.432.774,3.588,3.588,0,0,0-.153,1.12A3.615,3.615,0,0,0-3.865-4.6a2.1,2.1,0,0,0,.432.78,1.718,1.718,0,0,0,.672.459,2.475,2.475,0,0,0,.872.146A3.959,3.959,0,0,0-.948-3.31a3.745,3.745,0,0,0,.675-.227l.327.855a2.8,2.8,0,0,1-.8.321,4.7,4.7,0,0,1-1.138.12,3.9,3.9,0,0,1-1.436-.25A3.076,3.076,0,0,1-4.405-3.2,3.044,3.044,0,0,1-5.09-4.3a4.061,4.061,0,0,1-.238-1.429" transform="translate(44.078 61.343)"/>
    <path id="Path_7" data-name="Path 7" d="M-.923-3.223A2.51,2.51,0,0,0-.27-3.3a3.13,3.13,0,0,0,.537-.19,2.812,2.812,0,0,0,.4-.224c.108-.075.188-.133.244-.173V-5.534H-.39a2.067,2.067,0,0,0-.84.16,1.549,1.549,0,0,0-.513.368A1.248,1.248,0,0,0-2-4.57a1.326,1.326,0,0,0-.07.371.948.948,0,0,0,.088.417.826.826,0,0,0,.24.308,1.064,1.064,0,0,0,.361.186,1.55,1.55,0,0,0,.459.064m1.61-7.8a.672.672,0,0,0,.206-.037.812.812,0,0,0,.225-.117,1.289,1.289,0,0,0,.212-.2,1.2,1.2,0,0,0,.172-.286l.695.534a1.926,1.926,0,0,1-.26.427,1.981,1.981,0,0,1-.329.321,1.7,1.7,0,0,1-.362.214,1.584,1.584,0,0,1-.371.107c-.051.009-.1.015-.145.02a1.239,1.239,0,0,1-.137.007,1.366,1.366,0,0,1-.651-.155A4.516,4.516,0,0,1-.6-10.529a2.093,2.093,0,0,0-.4-.23.636.636,0,0,0-.3-.064,1.257,1.257,0,0,0-.193.03.614.614,0,0,0-.19.09,1.12,1.12,0,0,0-.2.188,2.628,2.628,0,0,0-.228.307l-.7-.494a1.685,1.685,0,0,1,.259-.42,2.079,2.079,0,0,1,.336-.321,2.13,2.13,0,0,1,.371-.22,1.608,1.608,0,0,1,.365-.12,1.423,1.423,0,0,1,.226-.021,1.461,1.461,0,0,1,.678.158,5.04,5.04,0,0,1,.57.344,1.148,1.148,0,0,0,.382.22,1.032,1.032,0,0,0,.313.06M.908-6.362v-.161A2.942,2.942,0,0,0,.822-7.3a1.076,1.076,0,0,0-.26-.494.947.947,0,0,0-.453-.258,2.664,2.664,0,0,0-.671-.073,4.452,4.452,0,0,0-.537.034A5.113,5.113,0,0,0-1.634-8c-.173.039-.334.086-.488.133a3.14,3.14,0,0,0-.4.154l-.289-.909a3.229,3.229,0,0,1,.5-.23,5.265,5.265,0,0,1,.593-.177,5.638,5.638,0,0,1,.638-.113,4.919,4.919,0,0,1,.63-.039,4.68,4.68,0,0,1,1.1.118,1.962,1.962,0,0,1,.836.421,1.9,1.9,0,0,1,.535.816,3.883,3.883,0,0,1,.187,1.3v4.155H1.208l-.18-.722a3.733,3.733,0,0,1-.356.257,3.53,3.53,0,0,1-.51.273,3.607,3.607,0,0,1-.651.22,3.125,3.125,0,0,1-.782.091,2.459,2.459,0,0,1-.918-.16,1.885,1.885,0,0,1-.66-.435,1.833,1.833,0,0,1-.4-.632,2.207,2.207,0,0,1-.132-.762,1.65,1.65,0,0,1,.214-.812,2.182,2.182,0,0,1,.592-.674,2.983,2.983,0,0,1,.893-.464A3.526,3.526,0,0,1-.549-6.362Z" transform="translate(48.482 61.337)"/>
    <path id="Path_8" data-name="Path 8" d="M-.493-1.3A3.969,3.969,0,0,0-.353-.175,2.155,2.155,0,0,0,.04.6a1.548,1.548,0,0,0,.609.448,2.038,2.038,0,0,0,.781.144,2.068,2.068,0,0,0,.784-.144A1.577,1.577,0,0,0,2.829.6a2.128,2.128,0,0,0,.4-.778A3.909,3.909,0,0,0,3.372-1.3a3.916,3.916,0,0,0-.143-1.129,2.134,2.134,0,0,0-.4-.778,1.575,1.575,0,0,0-.615-.447A2.1,2.1,0,0,0,1.431-3.8a2.066,2.066,0,0,0-.781.145,1.546,1.546,0,0,0-.609.447,2.161,2.161,0,0,0-.393.778A3.976,3.976,0,0,0-.493-1.3M-1.8-1.3a4.177,4.177,0,0,1,.236-1.449A3.123,3.123,0,0,1-.91-3.844,2.8,2.8,0,0,1,.107-4.535a3.477,3.477,0,0,1,1.324-.24,3.5,3.5,0,0,1,1.321.24,2.84,2.84,0,0,1,1.029.691,3.192,3.192,0,0,1,.665,1.092A4.194,4.194,0,0,1,4.682-1.3,4.226,4.226,0,0,1,4.446.153a3.2,3.2,0,0,1-.665,1.092,2.833,2.833,0,0,1-1.029.688,3.59,3.59,0,0,1-1.321.236A3.562,3.562,0,0,1,.107,1.933,2.8,2.8,0,0,1-.91,1.245,3.13,3.13,0,0,1-1.569.153,4.209,4.209,0,0,1-1.8-1.3" transform="translate(54.344 56.932)"/>
    <path id="Path_9" data-name="Path 9" d="M-1.185-.366a2.569,2.569,0,0,0-.658.08,1.374,1.374,0,0,0-.528.277,1.557,1.557,0,0,0-.384.522,2.748,2.748,0,0,0-.221.8h3.3A2.122,2.122,0,0,0,.2.536,1.448,1.448,0,0,0-.139.016a1.261,1.261,0,0,0-.481-.29,1.764,1.764,0,0,0-.564-.092M-3.028,2.293A2.617,2.617,0,0,0-2.464,4.02a1.958,1.958,0,0,0,1.553.611A5.116,5.116,0,0,0-.287,4.6C-.1,4.569.075,4.54.232,4.5a3.56,3.56,0,0,0,.419-.121c.125-.043.238-.086.34-.126l.313.856a3.608,3.608,0,0,1-.987.363,5.53,5.53,0,0,1-1.229.13,4.236,4.236,0,0,1-1.452-.231,2.853,2.853,0,0,1-1.075-.667,2.887,2.887,0,0,1-.67-1.072,4.234,4.234,0,0,1-.231-1.449A4.642,4.642,0,0,1-4.114.694,3.082,3.082,0,0,1-3.479-.415,2.706,2.706,0,0,1-2.487-1.1a3.426,3.426,0,0,1,1.3-.236,3.326,3.326,0,0,1,1.1.179,2.65,2.65,0,0,1,.9.521,2.4,2.4,0,0,1,.6.835,2.716,2.716,0,0,1,.222,1.121v.976Z" transform="translate(68.151 53.496)"/>
    <path id="Path_10" data-name="Path 10" d="M0-1.751A6.048,6.048,0,0,1,.289-3.669,4.25,4.25,0,0,1,1.122-5.14a3.644,3.644,0,0,1,1.312-.943,4.382,4.382,0,0,1,1.741-.33,4.694,4.694,0,0,1,.617.037,4.011,4.011,0,0,1,.507.1,2.976,2.976,0,0,1,.423.14c.129.052.252.108.369.166L5.723-5.1a3.53,3.53,0,0,0-.7-.245,3.66,3.66,0,0,0-.843-.089,3.058,3.058,0,0,0-1.17.214A2.265,2.265,0,0,0,2.1-4.56a3.14,3.14,0,0,0-.584,1.146,5.832,5.832,0,0,0-.209,1.663A5.655,5.655,0,0,0,1.526-.082a3.128,3.128,0,0,0,.611,1.155,2.375,2.375,0,0,0,.948.672,3.357,3.357,0,0,0,1.236.217,3.8,3.8,0,0,0,.531-.035,4.07,4.07,0,0,0,.451-.1c.136-.04.264-.084.379-.13S5.9,1.6,6,1.561l.281.855a3.519,3.519,0,0,1-.858.371,4.489,4.489,0,0,1-1.252.149A4.307,4.307,0,0,1,2.434,2.6a3.694,3.694,0,0,1-1.312-.952A4.29,4.29,0,0,1,.289.169,6.075,6.075,0,0,1,0-1.751" transform="translate(74.614 56.165)"/>
    <path id="Path_11" data-name="Path 11" d="M-.492-1.3A3.967,3.967,0,0,0-.352-.175,2.155,2.155,0,0,0,.041.6a1.543,1.543,0,0,0,.608.448,2.042,2.042,0,0,0,.781.144,2.08,2.08,0,0,0,.787-.144A1.575,1.575,0,0,0,2.829.6a2.164,2.164,0,0,0,.4-.778A3.986,3.986,0,0,0,3.374-1.3a3.993,3.993,0,0,0-.143-1.129,2.17,2.17,0,0,0-.4-.778,1.574,1.574,0,0,0-.613-.447A2.109,2.109,0,0,0,1.43-3.8a2.07,2.07,0,0,0-.781.145,1.542,1.542,0,0,0-.608.447,2.161,2.161,0,0,0-.393.778A3.974,3.974,0,0,0-.492-1.3M-1.8-1.3a4.194,4.194,0,0,1,.236-1.449A3.152,3.152,0,0,1-.911-3.844,2.829,2.829,0,0,1,.107-4.535a3.477,3.477,0,0,1,1.322-.24,3.513,3.513,0,0,1,1.324.24,2.865,2.865,0,0,1,1.029.691,3.164,3.164,0,0,1,.662,1.092A4.142,4.142,0,0,1,4.684-1.3,4.174,4.174,0,0,1,4.445.153a3.17,3.17,0,0,1-.662,1.092,2.858,2.858,0,0,1-1.029.688,3.6,3.6,0,0,1-1.324.236A3.563,3.563,0,0,1,.107,1.933,2.822,2.822,0,0,1-.911,1.245,3.159,3.159,0,0,1-1.567.153,4.226,4.226,0,0,1-1.8-1.3" transform="translate(83.856 56.932)"/>
    <path id="Path_12" data-name="Path 12" d="M0-.05H1.155l.108.635A4.045,4.045,0,0,1,2.307.021a3.528,3.528,0,0,1,1.219-.2,3.468,3.468,0,0,1,.907.109,1.583,1.583,0,0,1,.694.381,1.762,1.762,0,0,1,.446.731A3.674,3.674,0,0,1,5.73,2.207V6.629H4.419V2.207a2.7,2.7,0,0,0-.068-.664,1.069,1.069,0,0,0-.215-.438A.792.792,0,0,0,3.766.865,1.76,1.76,0,0,0,3.225.79a2.473,2.473,0,0,0-1.037.215,4.154,4.154,0,0,0-.88.535V6.629H0Z" transform="translate(90.417 52.34)"/>
    <path id="Path_13" data-name="Path 13" d="M-1.9-1.861a1.861,1.861,0,0,1-.179.821,1.754,1.754,0,0,1-.505.627,2.4,2.4,0,0,1-.806.4,3.754,3.754,0,0,1-1.069.14A7.009,7.009,0,0,1-5.163.093c-.236-.025-.462-.06-.678-.1a5.191,5.191,0,0,1-.607-.164,2.965,2.965,0,0,1-.5-.217l.249-.936q.266.1.51.188t.5.154a4.817,4.817,0,0,0,.556.1,5.594,5.594,0,0,0,.659.035A1.467,1.467,0,0,0-3.5-1.1a.9.9,0,0,0,.3-.718.672.672,0,0,0-.105-.371,1.068,1.068,0,0,0-.3-.3,2.377,2.377,0,0,0-.478-.241c-.187-.071-.4-.139-.628-.2a5.373,5.373,0,0,1-.855-.3,2.873,2.873,0,0,1-.679-.421A1.791,1.791,0,0,1-6.708-4.2a1.417,1.417,0,0,1-.164-.681A1.837,1.837,0,0,1-6.7-5.694a1.668,1.668,0,0,1,.513-.61,2.4,2.4,0,0,1,.82-.382,4.177,4.177,0,0,1,1.082-.129,5.648,5.648,0,0,1,1.288.132,4.257,4.257,0,0,1,.889.294l-.24.915c-.161-.049-.311-.1-.448-.14s-.281-.084-.425-.117-.3-.059-.468-.08a4.549,4.549,0,0,0-.57-.031,1.651,1.651,0,0,0-.989.241.781.781,0,0,0-.319.656.888.888,0,0,0,.069.36.816.816,0,0,0,.225.294,1.643,1.643,0,0,0,.416.244,4.37,4.37,0,0,0,.638.209,6.775,6.775,0,0,1,1.031.349,2.906,2.906,0,0,1,.723.433,1.621,1.621,0,0,1,.424.534,1.514,1.514,0,0,1,.14.662" transform="translate(104.962 58.972)"/>
    <path id="Path_14" data-name="Path 14" d="M-2.152-2.509H-3.31l-.113-.849a3.834,3.834,0,0,1-1.037.72,2.812,2.812,0,0,1-1.207.262,3.178,3.178,0,0,1-.915-.12,1.574,1.574,0,0,1-.7-.422,1.962,1.962,0,0,1-.447-.815,4.535,4.535,0,0,1-.156-1.3V-9.188h1.308v4.154a3.852,3.852,0,0,0,.07.795,1.324,1.324,0,0,0,.219.518.833.833,0,0,0,.368.284,1.508,1.508,0,0,0,.54.087,2.522,2.522,0,0,0,1.04-.211,3.71,3.71,0,0,0,.875-.544V-9.188h1.311Z" transform="translate(112.84 61.477)"/>
    <path id="Path_15" data-name="Path 15" d="M284.259-339.82h1.31v9.351h-1.31Z" transform="translate(-171.116 389.437)"/>
    <path id="Path_16" data-name="Path 16" d="M-.06-.7H.9V-2.44L2.2-2.573V-.7H4.176V.272H2.2V3.839a2.648,2.648,0,0,0,.054.568.922.922,0,0,0,.17.376.663.663,0,0,0,.3.208,1.359,1.359,0,0,0,.437.063c.107,0,.217,0,.331-.013s.225-.02.334-.033.212-.028.308-.043.177-.031.244-.044l.04.908c-.084.028-.182.053-.29.077s-.225.045-.348.064-.248.032-.376.043-.255.017-.375.017a3.9,3.9,0,0,1-.895-.093,1.506,1.506,0,0,1-.67-.337,1.509,1.509,0,0,1-.424-.668A3.348,3.348,0,0,1,.9,3.839V.272H-.218Z" transform="translate(116.347 52.992)"/>
    <path id="Path_17" data-name="Path 17" d="M-.492-1.3A3.914,3.914,0,0,0-.351-.175,2.131,2.131,0,0,0,.041.6a1.556,1.556,0,0,0,.608.448,2.052,2.052,0,0,0,.782.144,2.074,2.074,0,0,0,.784-.144A1.549,1.549,0,0,0,2.829.6a2.154,2.154,0,0,0,.4-.778A3.934,3.934,0,0,0,3.374-1.3a3.941,3.941,0,0,0-.143-1.129,2.16,2.16,0,0,0-.4-.778,1.548,1.548,0,0,0-.613-.447A2.1,2.1,0,0,0,1.431-3.8a2.081,2.081,0,0,0-.782.145,1.554,1.554,0,0,0-.608.447,2.137,2.137,0,0,0-.392.778A3.921,3.921,0,0,0-.492-1.3M-1.8-1.3a4.229,4.229,0,0,1,.235-1.449A3.144,3.144,0,0,1-.91-3.844,2.81,2.81,0,0,1,.108-4.535a3.468,3.468,0,0,1,1.323-.24,3.507,3.507,0,0,1,1.322.24,2.859,2.859,0,0,1,1.029.691,3.178,3.178,0,0,1,.664,1.092A4.16,4.16,0,0,1,4.683-1.3,4.192,4.192,0,0,1,4.446.153a3.185,3.185,0,0,1-.664,1.092,2.852,2.852,0,0,1-1.029.688,3.594,3.594,0,0,1-1.322.236A3.553,3.553,0,0,1,.108,1.933,2.8,2.8,0,0,1-.91,1.245,3.151,3.151,0,0,1-1.568.153,4.262,4.262,0,0,1-1.8-1.3" transform="translate(123.734 56.932)"/>
    <path id="Path_18" data-name="Path 18" d="M0-.05H1.157l.107.935A2.5,2.5,0,0,1,2.116.057a2.053,2.053,0,0,1,.978-.24c.088,0,.182,0,.282.005s.2.012.284.021L3.54.978A2.79,2.79,0,0,0,3.193.934C3.078.929,2.948.925,2.805.925a1.352,1.352,0,0,0-.815.268,3.258,3.258,0,0,0-.683.688V6.629H0Z" transform="translate(130.294 52.34)"/>
    <path id="Path_19" data-name="Path 19" d="M315.019-337.152h1.31v6.679h-1.31Zm-.068-2.685h1.437v1.176h-1.437Z" transform="translate(-179.496 389.442)"/>
    <path id="Path_20" data-name="Path 20" d="M-.922-2.237a2.542,2.542,0,0,0,.656-.08,3.149,3.149,0,0,0,.534-.19,2.9,2.9,0,0,0,.4-.224c.109-.075.188-.133.241-.173V-4.548h-1.3a2.069,2.069,0,0,0-.842.16,1.563,1.563,0,0,0-.515.368A1.249,1.249,0,0,0-2-3.583a1.26,1.26,0,0,0-.071.371.929.929,0,0,0,.089.417.8.8,0,0,0,.237.308A1.1,1.1,0,0,0-1.38-2.3a1.552,1.552,0,0,0,.457.064M.908-5.375v-.161a3.124,3.124,0,0,0-.082-.778,1.1,1.1,0,0,0-.262-.494.957.957,0,0,0-.455-.258,2.642,2.642,0,0,0-.67-.073,4.462,4.462,0,0,0-.537.034,5.266,5.266,0,0,0-.535.094c-.171.039-.334.086-.486.133a3.227,3.227,0,0,0-.4.154L-2.8-7.633a3.2,3.2,0,0,1,.5-.23,5.22,5.22,0,0,1,.593-.177,5.641,5.641,0,0,1,.636-.113A4.958,4.958,0,0,1-.44-8.193a4.683,4.683,0,0,1,1.1.118,1.966,1.966,0,0,1,.836.421,1.9,1.9,0,0,1,.536.816,3.851,3.851,0,0,1,.185,1.3v4.155H1.211L1.031-2.1a4.037,4.037,0,0,1-.356.257,3.58,3.58,0,0,1-.511.273,3.666,3.666,0,0,1-.651.22,3.133,3.133,0,0,1-.782.091,2.434,2.434,0,0,1-.916-.16,1.881,1.881,0,0,1-.662-.435,1.833,1.833,0,0,1-.4-.632,2.206,2.206,0,0,1-.132-.762,1.635,1.635,0,0,1,.214-.812,2.186,2.186,0,0,1,.591-.674A3,3,0,0,1-1.678-5.2,3.52,3.52,0,0,1-.546-5.375Z" transform="translate(142.195 60.35)"/>
    <path id="Path_34" data-name="Path 34" d="M-6.715-9.968c0-5.622-16.361-4.862-16.361-16.057,0-5.875,5.167-10.485,12.512-10.485,5.926,0,9.624,2.736,10.79,4.255l-4.813,5.723a8.266,8.266,0,0,0-6.636-3.292c-2.533,0-3.952,1.418-3.952,3.191,0,5.724,16.312,4.863,16.312,16.16C1.137-5.156-3.27.011-12.287.011-19.126.011-23.381-3.029-24.6-4.4l4.407-6.381c1.519,1.519,4.61,4.254,8.915,4.254,3.09,0,4.559-1.57,4.559-3.444" transform="translate(25.133 39.854)" fill="#1c79be"/>
    <path id="Path_35" data-name="Path 35" d="M-4.946-8.9c3.9,0,5.116-2.836,5.116-8.662,0-5.926-1.468-9.068-5.419-9.068-3.5,0-5.015,2.837-5.015,8.662,0,5.927,1.468,9.068,5.318,9.068m-13.17-8.764c0-8.814,3.7-14.942,13.17-14.942,9.878,0,12.967,5.876,12.967,14.74C8.021-9.056,4.273-2.925-5.2-2.925c-9.826,0-12.917-5.876-12.917-14.742" transform="translate(48.29 42.842)" fill="#1c79be"/>
    <path id="Path_36" data-name="Path 36" d="M-2.873,0V29.379c0,2.127.962,2.837,2.38,2.837a4.643,4.643,0,0,0,1.064-.1v6.027a9.24,9.24,0,0,1-3.647.71c-4.66,0-7.446-2.735-7.446-7.5V0Z" transform="translate(72.208 0.963)" fill="#1c79be"/>
    <path id="Path_37" data-name="Path 37" d="M0,0H7.649V18.488c0,3.141,1.52,4.762,4.1,4.762a5.243,5.243,0,0,0,4.964-3.444V0h7.65V28.619H17.883l-1.064-2.635h-.2c-1.671,2.026-3.95,3.192-7.546,3.192C2.939,29.177,0,25.985,0,19.2Z" transform="translate(77.492 10.739)" fill="#1c79be"/>
    <path id="Path_38" data-name="Path 38" d="M-6.506-2.131A11.34,11.34,0,0,0-9.95-2.638c-2.329,0-3.191,1.064-3.191,3.242V3.339h6.585V7.8h-6.686V31.554h-6.23V7.8h-4.356V3.339h4.457V.5c0-4.559,2.887-8.308,9.32-8.308a16.662,16.662,0,0,1,4.509.558Z" transform="translate(130.25 7.805)"/>
    <path id="Path_39" data-name="Path 39" d="M-4.718-9.093c4.457,0,5.925-3.09,5.925-9.421,0-6.485-1.772-9.776-6.229-9.776-4.154,0-5.826,3.039-5.826,9.422,0,6.432,1.723,9.776,6.13,9.776m-12.561-9.472c0-8.713,3.495-14.74,12.561-14.74,9.32,0,12.308,5.775,12.308,14.487S4.046-4.08-4.971-4.08c-9.269,0-12.308-5.824-12.308-14.486" transform="translate(144.016 43.944)"/>
    <path id="Path_1" data-name="Path 1" d="M-.492-1.845V2.323H-1.8V-6.759h5.06v.974H-.492V-2.82H2.815v.975Z" transform="translate(1.801 56.645)"/>
    <path id="Path_21" data-name="Path 21" d="M-1.184-.366a2.566,2.566,0,0,0-.656.08,1.371,1.371,0,0,0-.529.277,1.567,1.567,0,0,0-.384.522,2.773,2.773,0,0,0-.22.8h3.3A2.153,2.153,0,0,0,.2.536,1.422,1.422,0,0,0-.137.016a1.264,1.264,0,0,0-.482-.29,1.758,1.758,0,0,0-.564-.092M-3.024,2.293A2.629,2.629,0,0,0-2.463,4.02a1.965,1.965,0,0,0,1.556.611A5.079,5.079,0,0,0-.285,4.6C-.1,4.569.076,4.54.233,4.5a3.481,3.481,0,0,0,.419-.121C.779,4.34.891,4.3,1,4.257l.312.856a3.628,3.628,0,0,1-.988.363,5.515,5.515,0,0,1-1.227.13,4.248,4.248,0,0,1-1.455-.231,2.841,2.841,0,0,1-1.074-.667A2.885,2.885,0,0,1-4.1,3.636a4.234,4.234,0,0,1-.23-1.449A4.644,4.644,0,0,1-4.112.694,3.1,3.1,0,0,1-3.478-.415,2.733,2.733,0,0,1-2.485-1.1a3.432,3.432,0,0,1,1.3-.236,3.317,3.317,0,0,1,1.1.179,2.674,2.674,0,0,1,.9.521,2.442,2.442,0,0,1,.6.835,2.739,2.739,0,0,1,.22,1.121v.976Z" transform="translate(153.917 53.496)"/>
    <path id="Path_22" data-name="Path 22" d="M0-.05H1.157L1.232.5A4.166,4.166,0,0,1,2.292,0,4.088,4.088,0,0,1,3.528-.183a3.667,3.667,0,0,1,1.128.156,1.456,1.456,0,0,1,.76.565A4.207,4.207,0,0,1,6.472.006,3.923,3.923,0,0,1,7.728-.183a3.386,3.386,0,0,1,.908.113,1.676,1.676,0,0,1,.7.385,1.769,1.769,0,0,1,.448.715,3.354,3.354,0,0,1,.157,1.112V6.629H8.63V2.141a1.517,1.517,0,0,0-.287-1.036A1.186,1.186,0,0,0,7.428.79,2.565,2.565,0,0,0,6.5.955a3.223,3.223,0,0,0-.8.437c.008.063.016.128.02.2s.007.14.007.217V6.629H4.421V1.807a.959.959,0,0,0-.282-.788A1.462,1.462,0,0,0,3.226.79,2.569,2.569,0,0,0,2.187,1a3.836,3.836,0,0,0-.878.542V6.629H0Z" transform="translate(157.415 52.34)"/>
    <path id="Path_23" data-name="Path 23" d="M-1.558-.366V7.742H-2.869V-.366H-5.708V-1.34h7v.974Z" transform="translate(178.023 51.226)"/>
    <path id="Path_24" data-name="Path 24" d="M0-.05H1.157l.107.935A2.489,2.489,0,0,1,2.116.057a2.051,2.051,0,0,1,.976-.24c.088,0,.183,0,.285.005s.194.012.283.021L3.539.978A2.814,2.814,0,0,0,3.193.934C3.076.929,2.948.925,2.806.925a1.355,1.355,0,0,0-.816.268,3.256,3.256,0,0,0-.682.688V6.629H0Z" transform="translate(180.284 52.34)"/>
    <path id="Path_25" data-name="Path 25" d="M-.923-2.237a2.508,2.508,0,0,0,.654-.08,3.06,3.06,0,0,0,.534-.19,2.771,2.771,0,0,0,.4-.224c.109-.075.189-.133.243-.173V-4.548H-.39a2.062,2.062,0,0,0-.842.16,1.572,1.572,0,0,0-.513.368A1.211,1.211,0,0,0-2-3.583a1.26,1.26,0,0,0-.071.371.928.928,0,0,0,.088.417.826.826,0,0,0,.24.308,1.068,1.068,0,0,0,.363.186,1.533,1.533,0,0,0,.458.064M.906-5.375v-.161a3.017,3.017,0,0,0-.084-.778,1.117,1.117,0,0,0-.26-.494.976.976,0,0,0-.454-.258,2.67,2.67,0,0,0-.67-.073,4.43,4.43,0,0,0-.539.034,5.094,5.094,0,0,0-.535.094c-.17.039-.333.086-.487.133a3.184,3.184,0,0,0-.4.154l-.288-.909a3.157,3.157,0,0,1,.506-.23,5.12,5.12,0,0,1,.592-.177,5.777,5.777,0,0,1,.635-.113,4.953,4.953,0,0,1,.632-.039,4.661,4.661,0,0,1,1.1.118,1.982,1.982,0,0,1,.839.421,1.9,1.9,0,0,1,.534.816,3.846,3.846,0,0,1,.187,1.3v4.155H1.207L1.028-2.1a3.642,3.642,0,0,1-.356.257,3.513,3.513,0,0,1-.512.273,3.621,3.621,0,0,1-.648.22,3.143,3.143,0,0,1-.783.091,2.439,2.439,0,0,1-.916-.16,1.874,1.874,0,0,1-.664-.435,1.8,1.8,0,0,1-.4-.632,2.19,2.19,0,0,1-.133-.762,1.649,1.649,0,0,1,.213-.812,2.208,2.208,0,0,1,.592-.674A3,3,0,0,1-1.681-5.2,3.52,3.52,0,0,1-.549-5.375Z" transform="translate(188.16 60.35)"/>
    <path id="Path_26" data-name="Path 26" d="M0-.05H1.156l.105.635A4.066,4.066,0,0,1,2.307.021a3.525,3.525,0,0,1,1.219-.2,3.491,3.491,0,0,1,.909.109,1.6,1.6,0,0,1,.694.381,1.76,1.76,0,0,1,.444.731,3.714,3.714,0,0,1,.158,1.168V6.629H4.421V2.207a2.592,2.592,0,0,0-.071-.664,1.025,1.025,0,0,0-.214-.438.8.8,0,0,0-.37-.241A1.754,1.754,0,0,0,3.226.79a2.475,2.475,0,0,0-1.039.215,4.144,4.144,0,0,0-.878.535V6.629H0Z" transform="translate(192.634 52.34)"/>
    <path id="Path_27" data-name="Path 27" d="M-1.9-1.861a1.851,1.851,0,0,1-.178.821,1.76,1.76,0,0,1-.507.627,2.391,2.391,0,0,1-.805.4,3.743,3.743,0,0,1-1.069.14A6.984,6.984,0,0,1-5.164.093c-.236-.025-.462-.06-.679-.1a5.1,5.1,0,0,1-.606-.164,2.991,2.991,0,0,1-.5-.217l.249-.936c.178.068.347.13.51.188s.329.11.5.154a4.778,4.778,0,0,0,.554.1,5.624,5.624,0,0,0,.662.035A1.464,1.464,0,0,0-3.5-1.1a.9.9,0,0,0,.3-.718.661.661,0,0,0-.107-.371,1.022,1.022,0,0,0-.3-.3A2.305,2.305,0,0,0-4.1-2.729a6.377,6.377,0,0,0-.628-.2,5.3,5.3,0,0,1-.855-.3,2.884,2.884,0,0,1-.68-.421A1.831,1.831,0,0,1-6.71-4.2a1.425,1.425,0,0,1-.164-.681A1.828,1.828,0,0,1-6.7-5.694a1.668,1.668,0,0,1,.513-.61,2.389,2.389,0,0,1,.819-.382A4.194,4.194,0,0,1-4.28-6.815a5.666,5.666,0,0,1,1.288.132,4.291,4.291,0,0,1,.887.294l-.239.915c-.161-.049-.31-.1-.447-.14s-.281-.084-.425-.117-.3-.059-.467-.08a4.611,4.611,0,0,0-.572-.031,1.649,1.649,0,0,0-.988.241.782.782,0,0,0-.32.656.888.888,0,0,0,.07.36.816.816,0,0,0,.225.294,1.6,1.6,0,0,0,.416.244,4.4,4.4,0,0,0,.638.209,6.786,6.786,0,0,1,1.032.349,2.882,2.882,0,0,1,.721.433,1.6,1.6,0,0,1,.424.534,1.515,1.515,0,0,1,.142.662" transform="translate(207.18 58.972)"/>
    <path id="Path_28" data-name="Path 28" d="M-1.789-1.3a3.147,3.147,0,0,0-.457-1.847,1.682,1.682,0,0,0-1.463-.639,2.3,2.3,0,0,0-.833.148,3.23,3.23,0,0,0-.7.374V.7a3.48,3.48,0,0,0,.7.368,2.311,2.311,0,0,0,.833.146A1.669,1.669,0,0,0-2.245.564,3.213,3.213,0,0,0-1.789-1.3M-6.551-4.625h1.157l.1.654a4.522,4.522,0,0,1,.386-.334,1.99,1.99,0,0,1,.429-.246,2.392,2.392,0,0,1,.523-.154,3.854,3.854,0,0,1,.672-.052,2.641,2.641,0,0,1,1.157.246,2.493,2.493,0,0,1,.883.7A3.267,3.267,0,0,1-.679-2.725,4.731,4.731,0,0,1-.48-1.3,4.765,4.765,0,0,1-.679.129a3.353,3.353,0,0,1-.565,1.1,2.527,2.527,0,0,1-.883.707,2.622,2.622,0,0,1-1.157.25,3.692,3.692,0,0,1-.635-.049,2.581,2.581,0,0,1-.511-.145,2.051,2.051,0,0,1-.426-.234,3.538,3.538,0,0,1-.386-.313V4.725H-6.551Z" transform="translate(213.723 56.915)"/>
    <path id="Path_29" data-name="Path 29" d="M-.492-1.3A3.967,3.967,0,0,0-.352-.175,2.166,2.166,0,0,0,.041.6a1.553,1.553,0,0,0,.611.448,2.023,2.023,0,0,0,.779.144,2.071,2.071,0,0,0,.786-.144A1.564,1.564,0,0,0,2.83.6a2.127,2.127,0,0,0,.4-.778A3.854,3.854,0,0,0,3.374-1.3a3.861,3.861,0,0,0-.145-1.129,2.133,2.133,0,0,0-.4-.778,1.563,1.563,0,0,0-.614-.447A2.1,2.1,0,0,0,1.43-3.8a2.051,2.051,0,0,0-.779.145,1.551,1.551,0,0,0-.611.447,2.172,2.172,0,0,0-.393.778A3.974,3.974,0,0,0-.492-1.3M-1.8-1.3a4.194,4.194,0,0,1,.236-1.449A3.141,3.141,0,0,1-.911-3.844,2.826,2.826,0,0,1,.108-4.535a3.47,3.47,0,0,1,1.322-.24,3.517,3.517,0,0,1,1.325.24,2.875,2.875,0,0,1,1.029.691,3.176,3.176,0,0,1,.663,1.092A4.177,4.177,0,0,1,4.683-1.3,4.209,4.209,0,0,1,4.446.153a3.183,3.183,0,0,1-.663,1.092,2.868,2.868,0,0,1-1.029.688,3.6,3.6,0,0,1-1.325.236A3.556,3.556,0,0,1,.108,1.933,2.819,2.819,0,0,1-.911,1.245,3.148,3.148,0,0,1-1.567.153,4.226,4.226,0,0,1-1.8-1.3" transform="translate(216.534 56.932)"/>
    <path id="Path_30" data-name="Path 30" d="M0-.05H1.157l.108.935A2.508,2.508,0,0,1,2.117.057a2.061,2.061,0,0,1,.978-.24c.089,0,.184,0,.283.005s.195.012.284.021L3.54.978A2.8,2.8,0,0,0,3.194.934C3.079.929,2.949.925,2.806.925a1.355,1.355,0,0,0-.815.268,3.241,3.241,0,0,0-.683.688V6.629H0Z" transform="translate(223.093 52.34)"/>
    <path id="Path_31" data-name="Path 31" d="M-.06-.7H.9V-2.44L2.2-2.573V-.7H4.175V.272H2.2V3.839a2.554,2.554,0,0,0,.055.568.894.894,0,0,0,.169.376.655.655,0,0,0,.3.208,1.353,1.353,0,0,0,.437.063c.108,0,.218,0,.332-.013s.224-.02.334-.033.211-.028.306-.043.179-.031.244-.044l.041.908a2.98,2.98,0,0,1-.29.077c-.11.025-.225.045-.348.064s-.248.032-.375.043-.255.017-.375.017a3.908,3.908,0,0,1-.9-.093A1.508,1.508,0,0,1,1.467,5.6a1.526,1.526,0,0,1-.427-.668A3.437,3.437,0,0,1,.9,3.839V.272H-.22Z" transform="translate(227.615 52.992)"/>
    <path id="Path_32" data-name="Path 32" d="M-1.184-.366a2.571,2.571,0,0,0-.657.08,1.376,1.376,0,0,0-.527.277,1.521,1.521,0,0,0-.385.522,2.772,2.772,0,0,0-.22.8h3.3A2.157,2.157,0,0,0,.2.536,1.452,1.452,0,0,0-.138.016a1.272,1.272,0,0,0-.48-.29,1.784,1.784,0,0,0-.566-.092M-3.025,2.293A2.625,2.625,0,0,0-2.463,4.02a1.96,1.96,0,0,0,1.554.611A5.142,5.142,0,0,0-.285,4.6C-.1,4.569.076,4.54.232,4.5a3.408,3.408,0,0,0,.422-.121C.779,4.34.891,4.3.995,4.257l.313.856a3.664,3.664,0,0,1-.988.363,5.53,5.53,0,0,1-1.229.13,4.234,4.234,0,0,1-1.452-.231,2.847,2.847,0,0,1-1.077-.667,2.911,2.911,0,0,1-.667-1.072,4.216,4.216,0,0,1-.232-1.449A4.583,4.583,0,0,1-4.112.694,3.1,3.1,0,0,1-3.478-.415,2.73,2.73,0,0,1-2.485-1.1a3.426,3.426,0,0,1,1.3-.236,3.338,3.338,0,0,1,1.1.179,2.658,2.658,0,0,1,.894.521,2.419,2.419,0,0,1,.6.835,2.74,2.74,0,0,1,.221,1.121v.976Z" transform="translate(237.535 53.496)"/>
    <path id="Path_33" data-name="Path 33" d="M-1.9-1.861a1.88,1.88,0,0,1-.177.821,1.768,1.768,0,0,1-.507.627,2.384,2.384,0,0,1-.805.4,3.752,3.752,0,0,1-1.068.14A6.962,6.962,0,0,1-5.161.093c-.238-.025-.464-.06-.679-.1a5.2,5.2,0,0,1-.608-.164,2.946,2.946,0,0,1-.5-.217l.247-.936c.177.068.348.13.51.188s.331.11.5.154a4.877,4.877,0,0,0,.556.1,5.6,5.6,0,0,0,.659.035A1.468,1.468,0,0,0-3.5-1.1a.9.9,0,0,0,.3-.718.655.655,0,0,0-.107-.371,1.068,1.068,0,0,0-.3-.3,2.35,2.35,0,0,0-.477-.241c-.187-.071-.4-.139-.627-.2a5.34,5.34,0,0,1-.856-.3,2.9,2.9,0,0,1-.679-.421A1.812,1.812,0,0,1-6.708-4.2a1.425,1.425,0,0,1-.164-.681A1.837,1.837,0,0,1-6.7-5.694,1.681,1.681,0,0,1-6.18-6.3a2.37,2.37,0,0,1,.819-.382A4.185,4.185,0,0,1-4.28-6.815a5.646,5.646,0,0,1,1.287.132,4.242,4.242,0,0,1,.889.294l-.238.915c-.162-.049-.311-.1-.448-.14s-.282-.084-.425-.117-.3-.059-.47-.08a4.541,4.541,0,0,0-.568-.031,1.649,1.649,0,0,0-.989.241.781.781,0,0,0-.319.656.9.9,0,0,0,.068.36.829.829,0,0,0,.227.294,1.612,1.612,0,0,0,.415.244,4.358,4.358,0,0,0,.637.209,6.758,6.758,0,0,1,1.032.349,2.9,2.9,0,0,1,.722.433,1.623,1.623,0,0,1,.425.534,1.535,1.535,0,0,1,.14.662" transform="translate(247.53 58.972)"/>
    <path id="Path_40" data-name="Path 40" d="M-6.05-2.435a17.03,17.03,0,0,0-3.192-.3A8.932,8.932,0,0,0-15.979.047V19.852h-6.179V-8.362h4.812l1.317,3.749h.2A7.663,7.663,0,0,1-8.582-8.919a11.462,11.462,0,0,1,2.532.254Z" transform="translate(179.747 19.506)"/>
    <path id="Path_41" data-name="Path 41" d="M-11.053,0c5.521,0,8.662,3.039,8.662,9.371V28.822h-6.23V10.486c0-3.647-1.824-5.168-4.356-5.168A5.748,5.748,0,0,0-18.3,9.068V28.822h-6.281V10.992c0-3.748-1.571-5.674-4.56-5.674A5.566,5.566,0,0,0-34.253,9.27V28.822h-6.23V.608h5.015l1.115,2.786h.2A9.063,9.063,0,0,1-26.757,0c4.256,0,6.181,1.823,7.195,4.052h.2C-18.044,1.924-15.208,0-11.053,0" transform="translate(218.184 10.536)"/>
    <path id="Path_42" data-name="Path 42" d="M-5.726-6.3c-5.621-.3-9.116,1.014-9.116,4.153,0,1.925,1.317,3.394,3.748,3.394A6.571,6.571,0,0,0-5.726-1.434Zm5.877-7.75V-2.193C.151-.27.808.846,2.379.846h.76V5.2a5.426,5.426,0,0,1-2.888.71A5.175,5.175,0,0,1-4.864,2.719h-.2c-1.164,1.469-3.292,3.394-7.648,3.394-5.369,0-8.258-3.748-8.258-7.7,0-6.381,5.978-9.421,15.247-9.066v-2.533c0-3.7-1.924-4.761-4.76-4.761a5.692,5.692,0,0,0-5.42,3.242l-4.458-3.343a11.429,11.429,0,0,1,9.878-5.015C-3.7-23.063.151-20.531.151-14.047" transform="translate(242.598 33.752)"/>
  </g>
  <rect id="Rectangle_6" data-name="Rectangle 6" width="250" height="94" fill="none"/>
</svg>
