<svg xmlns="http://www.w3.org/2000/svg" width="178.234" height="29.014" viewBox="0 0 178.234 29.014">
  <g id="Group_7" data-name="Group 7" transform="translate(-99.362 -368.818)">
    <path id="Path_35" data-name="Path 35" d="M-11.6-17.217c0-4.086-11.894-3.534-11.894-11.671,0-4.271,3.757-7.622,9.094-7.622,4.308,0,7,1.988,7.843,3.093l-3.5,4.16a6,6,0,0,0-4.822-2.393c-1.842,0-2.873,1.031-2.873,2.319,0,4.161,11.857,3.535,11.857,11.746,0,3.865-3.2,7.621-9.757,7.621-4.971,0-8.064-2.209-8.948-3.2l3.2-4.639a9.375,9.375,0,0,0,6.481,3.092c2.246,0,3.314-1.141,3.314-2.5" transform="translate(123.961 407.759)" fill="#1c79be"/>
    <path id="Path_36" data-name="Path 36" d="M-8.543-15.377c2.836,0,3.718-2.061,3.718-6.3,0-4.308-1.066-6.591-3.938-6.591-2.541,0-3.645,2.062-3.645,6.3,0,4.308,1.068,6.591,3.865,6.591m-9.573-6.37c0-6.407,2.689-10.861,9.573-10.861,7.181,0,9.426,4.271,9.426,10.714,0,6.406-2.725,10.861-9.61,10.861-7.142,0-9.389-4.27-9.389-10.714" transform="translate(139.021 408.865)" fill="#1c79be"/>
    <path id="Path_37" data-name="Path 37" d="M-4.961,0V21.355c0,1.546.7,2.062,1.731,2.062a3.362,3.362,0,0,0,.773-.073v4.381a6.731,6.731,0,0,1-2.651.516c-3.388,0-5.412-1.988-5.412-5.449V0Z" transform="translate(154.332 369.518)" fill="#1c79be"/>
    <path id="Path_38" data-name="Path 38" d="M0,0H5.56V13.439c0,2.283,1.1,3.461,2.983,3.461a3.814,3.814,0,0,0,3.609-2.5V0h5.559V20.8H13l-.773-1.916h-.149a6.527,6.527,0,0,1-5.485,2.32C2.138,21.208,0,18.888,0,13.954Z" transform="translate(155.3 376.624)" fill="#1c79be"/>
    <path id="Path_39" data-name="Path 39" d="M-11.237-3.68a8.264,8.264,0,0,0-2.5-.368c-1.693,0-2.32.773-2.32,2.356V.3h4.786v3.24h-4.86V20.806h-4.53V3.537h-3.165V.3h3.239V-1.765c0-3.314,2.1-6.039,6.774-6.039a12.1,12.1,0,0,1,3.278.405Z" transform="translate(200.158 376.622)" fill="#fff"/>
    <path id="Path_40" data-name="Path 40" d="M-8.148-15.706c3.242,0,4.308-2.246,4.308-6.848,0-4.714-1.289-7.106-4.528-7.106-3.019,0-4.235,2.209-4.235,6.848,0,4.676,1.252,7.106,4.455,7.106m-9.13-6.885c0-6.333,2.541-10.714,9.13-10.714,6.774,0,8.948,4.2,8.948,10.531S-1.777-12.062-8.33-12.062c-6.739,0-8.948-4.233-8.948-10.53" transform="translate(208.374 409.856)" fill="#fff"/>
    <path id="Path_41" data-name="Path 41" d="M-10.449-4.206a12.37,12.37,0,0,0-2.32-.221,6.488,6.488,0,0,0-4.9,2.025v14.4h-4.492V-8.514h3.5l.956,2.725h.15a5.567,5.567,0,0,1,5.264-3.13,8.346,8.346,0,0,1,1.842.184Z" transform="translate(235.68 385.433)" fill="#fff"/>
    <path id="Path_42" data-name="Path 42" d="M-19.091,0c4.013,0,6.3,2.209,6.3,6.812V20.951h-4.53V7.622c0-2.651-1.325-3.757-3.166-3.757a4.18,4.18,0,0,0-3.867,2.725v14.36h-4.565V7.99c0-2.725-1.142-4.124-3.314-4.124a4.046,4.046,0,0,0-3.719,2.873V20.951h-4.53V.442h3.645l.812,2.025h.147A6.589,6.589,0,0,1-30.506,0c3.093,0,4.491,1.325,5.229,2.945h.146A6.892,6.892,0,0,1-19.091,0" transform="translate(268.625 376.477)" fill="#fff"/>
    <path id="Path_43" data-name="Path 43" d="M-9.89-10.876c-4.086-.221-6.627.737-6.627,3.019A2.434,2.434,0,0,0-13.792-5.39a4.775,4.775,0,0,0,3.9-1.951Zm4.272-5.634v8.617c0,1.4.477,2.209,1.619,2.209h.553v3.166A3.944,3.944,0,0,1-5.545-2a3.762,3.762,0,0,1-3.718-2.32H-9.41a6.547,6.547,0,0,1-5.561,2.467c-3.9,0-6-2.724-6-5.6,0-4.639,4.345-6.848,11.083-6.59v-1.841c0-2.688-1.4-3.461-3.46-3.461a4.138,4.138,0,0,0-3.941,2.356l-3.239-2.43a8.306,8.306,0,0,1,7.18-3.645c4.935,0,7.733,1.841,7.733,6.554" transform="translate(281.042 399.65)" fill="#fff"/>
  </g>
</svg>
